<?xml version="1.0" standalone="no"?><!DOCTYPE svg PUBLIC "-//W3C//DTD SVG 1.1//EN" "http://www.w3.org/Graphics/SVG/1.1/DTD/svg11.dtd"><svg t="1760520025425" class="icon" viewBox="0 0 1024 1024" version="1.1" xmlns="http://www.w3.org/2000/svg" p-id="50963" xmlns:xlink="http://www.w3.org/1999/xlink" width="64" height="64"><path d="M923.396491 251.508772c0-14.37193-7.185965-26.947368-21.557895-32.336842l-377.263157-176.056141c-8.982456-5.389474-21.557895-5.389474-30.540351 0L116.77193 219.17193c-12.575439 5.389474-19.761404 17.964912-21.557895 32.336842v490.442105c0 12.575439 7.185965 25.150877 19.761404 32.336842l377.263157 195.817544c5.389474 1.796491 10.778947 3.592982 16.168422 3.592983 5.389474 0 10.778947-1.796491 16.168421-3.592983l377.263157-195.817544c12.575439-5.389474 19.761404-17.964912 19.761404-32.336842l1.796491-490.442105zM512 114.975439l292.82807 138.329824L510.203509 395.22807l-294.624562-140.126316L512 114.975439zM170.666667 310.792982l303.607017 145.51579 1.796491 422.175439-305.403508-158.091229V310.792982z m377.263158 567.691229l-1.796492-422.175439 305.403509-147.312281V718.596491L547.929825 878.484211z" p-id="50964"></path></svg>